<svg width="236" height="104" viewBox="0 0 236 104" fill="none" xmlns="http://www.w3.org/2000/svg">
<g clip-path="url(#clip0_1_971)">
<g clip-path="url(#clip1_1_971)">
<g clip-path="url(#clip2_1_971)">
<path fill-rule="evenodd" clip-rule="evenodd" d="M47.4235 69.7388C47.9888 69.4914 48.2715 69.0325 48.2715 68.4666C48.2715 67.4065 47.4588 66.8411 45.798 66.8053H43.2891V73.3073H46.1867C47.9182 73.3073 48.7663 72.7061 48.7663 71.4344C48.7663 70.5868 48.3069 70.0215 47.4235 69.7388ZM44.9146 67.9719H45.798C46.3634 67.9719 46.6465 68.2193 46.6465 68.714C46.6465 69.1375 46.3634 69.3849 45.798 69.3849H44.9146V67.9719ZM45.8686 72.1063H44.9146V70.5515H45.8686C46.6461 70.5515 47.0348 70.7989 47.0348 71.3642C47.0348 71.9291 46.6814 72.1063 45.8686 72.1063ZM163.116 69.7388C163.681 69.4914 163.964 69.0325 163.964 68.4666C163.964 67.4065 163.152 66.8411 161.49 66.8053H158.982V73.3073H161.88C163.611 73.3073 164.459 72.7061 164.459 71.4344C164.459 70.5868 164.035 70.0215 163.116 69.7388ZM160.607 67.9719H161.49C162.055 67.9719 162.339 68.2193 162.339 68.714C162.339 69.1375 162.056 69.3849 161.49 69.3849H160.607V67.9719ZM161.561 72.1063H160.607V70.5515H161.561C162.338 70.5515 162.728 70.7989 162.728 71.3642C162.728 71.9291 162.374 72.1063 161.561 72.1063ZM143.681 67.4772C143.079 67.0168 142.444 66.876 141.738 66.8053H138.557V73.3073H141.738C142.338 73.2719 142.868 73.1664 143.433 72.8126C144.423 72.177 144.953 71.2224 144.953 70.0568C144.953 68.9967 144.493 68.1128 143.681 67.4772ZM141.738 71.9645C141.631 71.9998 141.489 71.9998 141.384 71.9998H140.182V68.1128H141.384C141.489 68.1128 141.631 68.1128 141.738 68.1481C142.656 68.289 143.257 69.032 143.257 70.0568C143.257 71.0816 142.656 71.8236 141.738 71.9645ZM118.026 70.2688C118.804 69.9149 119.158 69.4202 119.158 68.6787C119.158 67.4065 118.345 66.8058 116.683 66.8058H114.21V73.3078H115.835V70.6575H116.012C116.295 70.6575 116.507 70.6928 116.683 70.764C116.895 70.9049 117.072 71.1179 117.214 71.4349L117.991 73.3078H119.829L118.804 71.082C118.627 70.657 118.345 70.3743 118.026 70.2688ZM116.683 69.4561H115.835V67.9724H116.683C117.213 67.9724 117.496 68.2551 117.496 68.7145C117.496 69.2087 117.249 69.4561 116.683 69.4561ZM169.406 70.2688C170.183 69.9149 170.537 69.4202 170.537 68.6787C170.537 67.4065 169.689 66.8058 167.992 66.8058H165.554V73.3078H167.179V70.6575H167.356C167.639 70.6575 167.851 70.6928 167.992 70.764C168.24 70.9049 168.381 71.1179 168.522 71.4349L169.37 73.3078H171.208L170.183 71.082C169.971 70.657 169.724 70.3743 169.406 70.2688ZM167.992 69.4561H167.179V67.9724H167.992C168.557 67.9724 168.84 68.2551 168.84 68.7145C168.84 69.2087 168.593 69.4561 167.992 69.4561ZM53.042 66.8053H52.1939L49.3316 73.3073H51.0985L51.5932 72.0352H54.4201L54.8795 73.3073H56.611L54.0668 66.8053H53.042ZM53.042 70.9397H52.0879L53.042 68.5722L53.0773 68.4666L53.9961 70.9397H53.042ZM123.963 66.8053H123.114L120.287 73.3073H122.019L122.548 72.0352H125.34L125.8 73.3073H127.531L124.987 66.8053H123.963ZM123.963 70.9397H123.008L123.963 68.5722L124.034 68.4666L124.952 70.9397H123.963ZM175.307 66.8053H174.458L171.596 73.3073H173.328L173.858 72.0352H176.649L177.144 73.3073H178.875L176.33 66.8053H175.307ZM175.307 70.9397H174.317L175.307 68.5722L175.342 68.4666L176.261 70.9397H175.307ZM62.5476 70.6924L59.0492 66.8053H57.6358V73.3073H59.2613V69.2087L62.9009 73.3073H64.1731V66.8053H62.5476V70.6924ZM185.555 73.3073H187.25V66.8053H185.555V73.3073ZM103.927 70.6924L100.429 66.8053H99.0151V73.3073H100.605V69.2087L104.245 73.3073H105.517V66.8053H103.927V70.6924ZM107.001 68.0073H109.157V73.3073H110.853V68.0073H113.008V66.8053H107.001V68.0073ZM130.288 66.8053H128.663V73.3073H133.08V72.071H130.288V66.8053ZM190.396 72.071V66.8053H188.771V73.3073H193.188V72.071H190.396ZM94.5273 70.5515H97.1069V69.3147H94.5273V68.0073H97.2482V66.8053H92.8665V73.3073H97.3189V72.1063H94.5273V70.5515ZM76.4001 66.7346C75.3753 66.7346 74.5272 67.0173 73.8912 67.6539C73.2198 68.2895 72.8664 69.1022 72.8664 70.0926C72.8664 71.0462 73.2198 71.8948 73.8912 72.5304C74.5272 73.1316 75.3753 73.4496 76.4001 73.4496C77.4243 73.4496 78.2724 73.1316 78.9085 72.5304C79.5799 71.8948 79.9332 71.0467 79.9332 70.0926C79.9332 69.1022 79.5799 68.2895 78.9085 67.6539C78.2724 67.0173 77.4243 66.7346 76.4001 66.7346ZM76.4001 72.071C75.3046 72.071 74.5272 71.2582 74.5272 70.0926C74.5272 68.926 75.3046 68.0779 76.4001 68.0779C77.4602 68.0779 78.2376 68.9265 78.2376 70.0926C78.2371 71.2577 77.4597 72.071 76.4001 72.071ZM149.37 66.6998C148.345 66.6998 147.497 67.0168 146.862 67.6181C146.19 68.2546 145.837 69.1017 145.837 70.0568C145.837 71.0104 146.19 71.859 146.862 72.4945C147.497 73.0957 148.345 73.4138 149.37 73.4138C150.395 73.4138 151.243 73.0957 151.878 72.4945C152.55 71.859 152.904 71.0462 152.904 70.0568C152.904 69.1022 152.55 68.2546 151.878 67.6181C151.243 67.0173 150.395 66.6998 149.37 66.6998ZM149.37 72.071C148.274 72.071 147.497 71.2224 147.497 70.0568C147.497 68.8902 148.274 68.0774 149.37 68.0774C150.43 68.0774 151.243 68.8902 151.243 70.0568C151.243 71.2224 150.43 72.071 149.37 72.071ZM67.318 70.0921C67.318 68.819 68.1308 68.0774 69.4382 68.0774C70.145 68.0774 70.887 68.2895 71.5938 68.7847V67.2298C70.8927 66.8762 70.1175 66.6945 69.3322 66.6998C67.0707 66.6998 65.6572 68.1128 65.6572 70.0921C65.6572 71.0457 66.0106 71.9286 66.6466 72.5299C67.2827 73.1311 68.1308 73.4491 69.1909 73.4491C70.0743 73.4491 70.8871 73.2361 71.6645 72.7772V71.2577C70.8871 71.8231 70.1096 72.0705 69.2969 72.0705C68.0954 72.071 67.318 71.2936 67.318 70.0921ZM87.1419 70.0921C87.1419 68.819 87.9547 68.0774 89.2621 68.0774C90.0042 68.0774 90.7109 68.2895 91.453 68.7847V67.2298C90.7109 66.876 89.9689 66.6998 89.1561 66.6998C86.8946 66.6998 85.4811 68.1128 85.4811 70.0921C85.4811 71.0457 85.8345 71.9286 86.4705 72.5299C87.1066 73.1311 87.9547 73.4491 89.0148 73.4491C89.9335 73.4491 90.711 73.2361 91.4884 72.7772V71.2577C90.711 71.8231 89.9335 72.0705 89.1561 72.0705C87.9194 72.071 87.1419 71.2936 87.1419 70.0921ZM183.435 69.9149C182.94 69.5969 182.374 69.4202 181.809 69.2087C181.208 68.9967 180.926 68.7493 180.926 68.5025C180.926 68.1486 181.243 67.9724 181.88 67.9724C182.481 67.9724 183.187 68.1844 184 68.608V67.2652C183.258 66.9123 182.515 66.7351 181.809 66.7351C180.289 66.7351 179.335 67.5479 179.335 68.608C179.335 69.8099 180.148 70.34 181.773 70.9049C182.339 71.1179 182.657 71.2587 182.657 71.6479C182.657 72.0008 182.303 72.2123 181.668 72.2123C180.926 72.2123 180.254 71.8953 179.441 71.4006V72.8489C180.148 73.2724 180.89 73.4844 181.703 73.4844C183.363 73.4844 184.283 72.707 184.283 71.5414C184.283 70.7989 184 70.2688 183.435 69.9149ZM110.924 62.5301H122.691L124.917 60.3034H113.114V53.6605H115.341L117.567 51.4343H108.697V42.6355L106.506 44.8617V47.0526H99.8632V35.2501L97.637 37.441V49.2435H104.28V55.8509H110.924V62.5301ZM106.506 37.441H115.341L117.567 35.2501H108.697V26.3806L104.28 30.833V35.2501H106.506V37.441ZM122.691 53.6605V44.8264L124.917 42.6355V51.4343H133.786L129.334 55.8509H124.917V53.6605H122.691ZM110.924 26.3806H113.114V21.9635L110.924 24.1897V26.3806ZM133.786 49.2788V47.0526H138.204L135.978 49.2788H133.786ZM122.691 37.441V28.6068L124.917 26.3806V35.2501H133.751L131.561 37.441H122.691Z" fill="black"/>
<path d="M0.00146484 78.7844H235.838" stroke="black" stroke-width="4.84408" stroke-miterlimit="2.613"/>
</g>
</g>
</g>
<defs>
<clipPath id="clip0_1_971">
<rect width="235.84" height="103.17" fill="white"/>
</clipPath>
<clipPath id="clip1_1_971">
<rect width="235.84" height="103.17" fill="white"/>
</clipPath>
<clipPath id="clip2_1_971">
<rect width="235.84" height="59.243" fill="white" transform="translate(0 21.9635)"/>
</clipPath>
</defs>
</svg>
