<svg width="25" height="27" viewBox="0 0 25 27" fill="none" xmlns="http://www.w3.org/2000/svg">
<path d="M11.7055 12.8944L0.602417 24.7567C0.60346 24.7588 0.60346 24.7619 0.604503 24.764C0.945511 26.0521 2.11349 27 3.50047 27C4.05526 27 4.57563 26.8488 5.02197 26.5843L5.05742 26.5633L17.5548 19.3042L11.7055 12.8944Z" fill="#EA4335"/>
<path d="M22.9378 10.8745L22.9274 10.8671L17.5317 7.71889L11.453 13.164L17.5536 19.303L22.9201 16.1862C23.8607 15.674 24.5 14.6756 24.5 13.5251C24.5 12.3809 23.8701 11.3878 22.9378 10.8745Z" fill="#FBBC04"/>
<path d="M0.602198 2.24241C0.535457 2.49015 0.5 2.75049 0.5 3.01923V23.9808C0.5 24.2496 0.535457 24.5099 0.603241 24.7566L12.087 13.1977L0.602198 2.24241Z" fill="#4285F4"/>
<path d="M11.7875 13.5L17.5336 7.71688L5.0508 0.431548C4.59717 0.15756 4.0674 9.72748e-05 3.50114 9.72748e-05C2.11417 9.72748e-05 0.944101 0.95013 0.603093 2.23923C0.603093 2.24028 0.602051 2.24133 0.602051 2.24238L11.7875 13.5Z" fill="#34A853"/>
</svg>
